# xmcd
#
# Track frame offsets: 
#        150
#        15682
#        31906
#        52622
#        70643
#        89554
#        105185
#        125377
#        152984
#        175700
#        198339
#        217419
#        237441
#        253691
#
# Disc length: 3664 seconds
#
# Revision: 0
# Processed by: cddbd v1.5.2PL0 Copyright (c) Steve Scherf et al.
# Submitted via: ExactAudioCopy v1.3
#
DISCID=b60e4e0e
DTITLE=Ali Neander's Blues Bang - Family Reunion
DYEAR=2019
DGENRE=Blues
TTITLE0=Hard Killing Floor
TTITLE1=Preachin' Blues
TTITLE2=Keep It Up
TTITLE3=I Got Everything
TTITLE4=Voodoo Woman
TTITLE5=Last Night
TTITLE6=Last Kind Words
TTITLE7=Down In The Bottom
TTITLE8=Reap What You Sow
TTITLE9=Good Texan
TTITLE10=Sittin' On The Top Of The World
TTITLE11=Something Gotta Hold Me
TTITLE12=The Wind Cries Mary
TTITLE13=Mr.Big
EXTD=
EXTT0=
EXTT1=
EXTT2=
EXTT3=
EXTT4=
EXTT5=
EXTT6=
EXTT7=
EXTT8=
EXTT9=
EXTT10=
EXTT11=
EXTT12=
EXTT13=
PLAYORDER=
